
<svg width="512" height="512" viewBox="0 0 512 512" fill="none" xmlns="http://www.w3.org/2000/svg">
  <rect width="512" height="512" rx="120" fill="#4F46E5"/>
  <path d="M384 192H160C142.33 192 128 206.33 128 224V352C128 369.67 142.33 384 160 384H384C401.67 384 416 369.67 416 352V224C416 206.33 401.67 192 384 192Z" fill="white"/>
  <path d="M416 240H352C334.33 240 320 254.33 320 272C320 289.67 334.33 304 352 304H416V240Z" fill="#E0E7FF"/>
  <circle cx="368" cy="272" r="12" fill="#4F46E5"/>
  <path d="M128 256V224C128 179.817 163.817 144 208 144H336C353.67 144 368 158.33 368 176V192H160C142.33 192 128 206.33 128 224V256Z" fill="#C7D2FE"/>
  <!-- AI Sparkle Icon -->
  <path d="M220 100L225 120L245 125L225 130L220 150L215 130L195 125L215 120L220 100Z" fill="#FACC15"/>
  <path d="M270 70L273 82L285 85L273 88L270 100L267 88L255 85L267 82L270 70Z" fill="#FDE047"/>
</svg>
